<svg xmlns="http://www.w3.org/2000/svg" width="780" height="1688" viewBox="0 0 390 844" role="img" aria-labelledby="title desc">
  <title id="title">Waydean — Mobile Master: экран подробного профиля</title>
  <desc id="desc">Черновое состояние подробного профиля Магомеда на отдельном мобильном экране; изображён нейтральный силуэт без черт лица.</desc>
  <defs>
    <linearGradient id="screen" x2="0" y2="1"><stop stop-color="#14211f"/><stop offset=".42" stop-color="#091316"/><stop offset="1" stop-color="#040b10"/></linearGradient>
    <linearGradient id="hero" x2="0" y2="1"><stop stop-color="#28302b"/><stop offset=".58" stop-color="#10191a"/><stop offset="1" stop-color="#071014"/></linearGradient>
    <linearGradient id="silhouette" x2="0" y2="1"><stop stop-color="#b7aa8d"/><stop offset=".34" stop-color="#77705f"/><stop offset="1" stop-color="#202522"/></linearGradient>
    <linearGradient id="gold" x2="1" y2="1"><stop stop-color="#7e5a27"/><stop offset=".52" stop-color="#c3974d"/><stop offset="1" stop-color="#67471f"/></linearGradient>
    <radialGradient id="sun"><stop stop-color="#d7ad65" stop-opacity=".8"/><stop offset="1" stop-color="#d7ad65" stop-opacity="0"/></radialGradient>
  </defs>
  <rect x="2" y="2" width="386" height="840" rx="30" fill="#020608" stroke="#a58a58" stroke-width="2"/>
  <clipPath id="clip"><rect x="7" y="7" width="376" height="830" rx="25"/></clipPath>
  <g clip-path="url(#clip)">
    <rect x="7" y="7" width="376" height="830" fill="url(#screen)"/>
    <rect x="7" y="7" width="376" height="29" fill="#03090d" opacity=".85"/>
    <text x="24" y="27" fill="#f0eadb" font-family="Arial,sans-serif" font-size="11">9:41</text>
    <text x="322" y="27" fill="#f0eadb" font-family="Arial,sans-serif" font-size="11">●●●　▰</text>
    <rect x="7" y="36" width="376" height="49" fill="#050d11" stroke="#927c55" stroke-opacity=".3"/>
    <path d="M30 61h-12m0 0 7-7m-7 7 7 7" fill="none" stroke="#e6d8bc" stroke-width="1.7" stroke-linecap="round" stroke-linejoin="round"/>
    <text x="42" y="65" fill="#e6d8bc" font-family="Arial,sans-serif" font-size="12">Назад</text>
    <circle cx="354" cy="60" r="16" fill="#0b1518" stroke="#aa8a4e" stroke-opacity=".5"/>
    <circle cx="348" cy="60" r="1.4" fill="#e8cd91"/><circle cx="354" cy="60" r="1.4" fill="#e8cd91"/><circle cx="360" cy="60" r="1.4" fill="#e8cd91"/>
    <image x="7" y="85" width="376" height="255" preserveAspectRatio="xMidYMid slice" href="../assets/references/waydean-mobile-cinematic-background.png"/>
    <rect x="7" y="85" width="376" height="255" fill="#061014" opacity=".24"/>
    <rect x="7" y="210" width="376" height="130" fill="#040b0e" opacity=".2"/>
    <path d="M7 239c71 45 127 57 188 57s117-12 188-57v101H7Z" fill="#040b0e" opacity=".58"/>
    <path d="M195 111c-24 0-39 18-39 45 0 25 12 46 32 55v10c-19 7-34 21-43 40-5 10-9 22-11 35h122c-2-13-6-25-11-35-9-19-24-33-43-40v-10c20-9 32-30 32-55 0-27-15-45-39-45Z" fill="url(#silhouette)" stroke="#c4b18a" stroke-opacity=".54" stroke-width="1.4" stroke-linejoin="round"/>
    <text x="24" y="299" fill="#f2e7d1" font-family="Georgia,serif" font-size="23" font-weight="bold">Магомед</text>
    <text x="25" y="321" fill="#d6c7a8" font-family="Arial,sans-serif" font-size="12">1825–1890</text>
    <rect x="7" y="340" width="376" height="54" fill="#071014" stroke="#b5985c" stroke-opacity=".25"/>
    <text x="24" y="373" fill="#f1d38e" font-family="Arial,sans-serif" font-size="10" font-weight="bold">Информация</text>
    <text x="132" y="373" fill="#c7c0b2" font-family="Arial,sans-serif" font-size="10">Родственники</text>
    <rect x="211" y="356" width="18" height="16" rx="8" fill="#263034"/><text x="220" y="367" fill="#e1d7c4" text-anchor="middle" font-family="Arial,sans-serif" font-size="8">12</text>
    <text x="270" y="373" fill="#c7c0b2" font-family="Arial,sans-serif" font-size="10">Медиа</text>
    <rect x="310" y="356" width="17" height="16" rx="8" fill="#263034"/><text x="318.5" y="367" fill="#e1d7c4" text-anchor="middle" font-family="Arial,sans-serif" font-size="8">5</text>
    <path d="M21 393H131" stroke="#e9c36f" stroke-width="2"/>
    <g font-family="Arial,sans-serif">
      <g fill="none" stroke="#e1bd70" stroke-width="1.3" stroke-linecap="round" stroke-linejoin="round"><circle cx="28" cy="423" r="9"/><path d="M28 429v-12m0 4-4-3m4 6 4-3"/><circle cx="28" cy="472" r="9"/><path d="M24 471h8m-4-4v9"/><circle cx="28" cy="521" r="9"/><path d="M23 524c1-5 9-5 10 0m-5-9a2.5 2.5 0 1 0 0 5 2.5 2.5 0 0 0 0-5Z"/><circle cx="28" cy="570" r="9"/><path d="M28 564v12m0-8-4-3m4 6 4-3"/><circle cx="28" cy="619" r="9"/><path d="M24 622h8m-6-5 2-3 2 3"/></g>
      <g fill="#bdb6a8" font-size="11"><text x="48" y="419">Поколение</text><text x="48" y="468">Отец</text><text x="48" y="517">Дети</text><text x="48" y="566">Ветвь</text><text x="48" y="615">Место</text></g>
      <g fill="#f0e8d9" font-size="12" text-anchor="end"><text x="359" y="419">3</text><text x="359" y="468">Иса</text><text x="359" y="517">5 человек</text><text x="359" y="566">Линия Исы</text><text x="359" y="615">Чечня</text></g>
    </g>
    <path d="M18 441H372M18 490H372M18 539H372M18 588H372M18 637H372" stroke="#d0bd94" stroke-opacity=".12"/>
    <g font-family="Arial,sans-serif"><text x="24" y="666" fill="#bdb6a8" font-size="10">Заметки</text><text x="24" y="684" fill="#e3dccf" font-size="10">Сохраняются устные предания о его потомках.</text></g>
    <rect x="21" y="715" width="348" height="53" rx="8" fill="url(#gold)" stroke="#f0ca75" stroke-width="1"/>
    <text x="187" y="747" text-anchor="middle" fill="#fff7e8" font-family="Arial,sans-serif" font-size="13" font-weight="bold">Показать ветвь</text>
    <path d="m346 739 5 5-5 5" fill="none" stroke="#fff1d1" stroke-width="1.5" stroke-linecap="round" stroke-linejoin="round"/>
    <rect x="160" y="820" width="70" height="4" rx="2" fill="#f3f1ec"/>
  </g>
</svg>
