<svg xmlns="http://www.w3.org/2000/svg" width="780" height="1688" viewBox="0 0 390 844" role="img" aria-labelledby="title desc">
  <title id="title">Waydean Mobile Master — композиция 0.1</title>
  <desc id="desc">Черновой мобильный экран семейного древа с приглушённым пейзажем Кавказа, вайнахскими башнями, нейтральными силуэтами людей без фотографий, поиском, мини-картой и нижней навигацией.</desc>
  <defs>
    <linearGradient id="screen" x2="0" y2="1"><stop stop-color="#172724"/><stop offset=".56" stop-color="#0b1719"/><stop offset="1" stop-color="#050d12"/></linearGradient>
    <linearGradient id="card" x2="0" y2="1"><stop stop-color="#514d3d"/><stop offset=".58" stop-color="#19201e"/><stop offset="1" stop-color="#081114"/></linearGradient>
    <linearGradient id="bar" x2="1" y2="1"><stop stop-color="#122126"/><stop offset="1" stop-color="#060c10"/></linearGradient>
    <radialGradient id="photo"><stop stop-color="#b9a47c" stop-opacity=".7"/><stop offset=".5" stop-color="#555044"/><stop offset="1" stop-color="#202622"/></radialGradient>
    <symbol id="avatar-fallback" viewBox="0 0 448 512"><path d="M224 256A128 128 0 1 0 224 0a128 128 0 1 0 0 256zm-45.7 48C79.8 304 0 383.8 0 482.3 0 498.7 13.3 512 29.7 512l388.6 0c16.4 0 29.7-13.3 29.7-29.7C448 383.8 368.2 304 269.7 304l-91.4 0z" fill="#c3b696"/></symbol>
    <filter id="glow" x="-80%" y="-80%" width="260%" height="260%"><feGaussianBlur stdDeviation="4" result="b"/><feMerge><feMergeNode in="b"/><feMergeNode in="SourceGraphic"/></feMerge></filter>
    <filter id="shadow" x="-40%" y="-30%" width="180%" height="180%"><feGaussianBlur in="SourceAlpha" stdDeviation="4" result="b"/><feOffset dy="3"/><feComponentTransfer><feFuncA type="linear" slope=".48"/></feComponentTransfer><feMerge><feMergeNode/><feMergeNode in="SourceGraphic"/></feMerge></filter>
  </defs>
  <rect x="2" y="2" width="386" height="840" rx="30" fill="#020608" stroke="#a58a58" stroke-width="2"/>
  <clipPath id="clip"><rect x="7" y="7" width="376" height="830" rx="25"/></clipPath>
  <g clip-path="url(#clip)">
    <rect x="7" y="7" width="376" height="830" fill="url(#screen)"/>
    <image x="7" y="84" width="376" height="697" preserveAspectRatio="xMidYMid slice" href="../assets/references/waydean-mobile-tree-background.png"/>
    <rect x="7" y="84" width="376" height="697" fill="#061014" opacity=".25"/>
    <!-- Font Awesome Free user icon; Icons CC BY 4.0. Source: https://github.com/FortAwesome/Font-Awesome/blob/6.x/svgs/solid/user.svg -->
    <rect x="7" y="7" width="376" height="30" fill="#03090d" opacity=".82"/>
    <text x="25" y="27" fill="#f0eadb" font-family="Arial,sans-serif" font-size="11">9:41</text>
    <text x="322" y="27" fill="#f0eadb" font-family="Arial,sans-serif" font-size="11">●●●　▰</text>
    <rect x="7" y="37" width="376" height="47" fill="#030a0f" fill-opacity=".92" stroke="#927c55" stroke-opacity=".28"/>
    <g fill="none" stroke="#f1d392" stroke-width="1.4" stroke-linecap="round" stroke-linejoin="round"><path d="M29 72V51M29 57l-6-5m6 9 6-6m-6 10-7-5m7 1 7-5m-7 11-6-4m6 0 6-4"/><circle cx="23" cy="51" r="2" fill="#f1d392"/><circle cx="35" cy="55" r="2" fill="#f1d392"/><circle cx="22" cy="60" r="2" fill="#f1d392"/><circle cx="36" cy="59" r="2" fill="#f1d392"/></g>
    <text x="45" y="59" fill="#f1d392" font-family="Georgia,serif" font-size="15" font-weight="bold">WAYDEAN</text>
    <text x="45" y="73" fill="#d8d0c1" font-family="Arial,sans-serif" font-size="8">Семейное древо</text>
    <text x="352" y="66" fill="#edc973" font-family="Arial,sans-serif" font-size="17">♛</text>
    <rect x="20" y="98" width="350" height="42" rx="8" fill="#071015" fill-opacity=".93" stroke="#d2b779" stroke-opacity=".52"/>
    <text x="33" y="124" fill="#c7c0b2" font-family="Arial,sans-serif" font-size="12">⌕　Поиск человека…</text>
    <g fill="none" stroke="#e2c48a" stroke-width="1.6" stroke-linecap="round" opacity=".9" filter="url(#glow)">
      <path d="M195 260V309M195 309H72V374M195 309V374M195 309H318V374"/>
      <path d="M72 467V523M195 467V523M318 467V523"/>
    </g>
    <g filter="url(#shadow)" font-family="Arial,sans-serif" text-anchor="middle">
      <g transform="translate(159 187)"><rect width="72" height="93" rx="7" fill="url(#card)" stroke="#d8bc7e"/><rect x="4" y="4" width="64" height="53" rx="4" fill="url(#photo)"/><text x="36" y="67" fill="#fff" font-size="11" font-weight="bold">Куди</text><text x="36" y="81" fill="#c8bea9" font-size="9">1750–1820</text></g>
      <g transform="translate(36 374)"><rect width="72" height="93" rx="7" fill="url(#card)" stroke="#d8bc7e"/><rect x="4" y="4" width="64" height="53" rx="4" fill="url(#photo)"/><text x="36" y="67" fill="#fff" font-size="11" font-weight="bold">Саид</text><text x="36" y="81" fill="#c8bea9" font-size="9">1780–1845</text></g>
      <g transform="translate(159 374)"><rect width="72" height="93" rx="7" fill="url(#card)" stroke="#d8bc7e"/><rect x="4" y="4" width="64" height="53" rx="4" fill="url(#photo)"/><text x="36" y="67" fill="#fff" font-size="11" font-weight="bold">Иса</text><text x="36" y="81" fill="#c8bea9" font-size="9">1790–1858</text></g>
      <g transform="translate(282 374)"><rect width="72" height="93" rx="7" fill="url(#card)" stroke="#d8bc7e"/><rect x="4" y="4" width="64" height="53" rx="4" fill="url(#photo)"/><text x="36" y="67" fill="#fff" font-size="11" font-weight="bold">Умар</text><text x="36" y="81" fill="#c8bea9" font-size="9">1795–1863</text></g>
      <g transform="translate(36 523)"><rect width="72" height="93" rx="7" fill="url(#card)" stroke="#d8bc7e"/><rect x="4" y="4" width="64" height="53" rx="4" fill="url(#photo)"/><text x="36" y="67" fill="#fff" font-size="11" font-weight="bold">Хасан</text><text x="36" y="81" fill="#c8bea9" font-size="9">1820–1883</text></g>
      <g transform="translate(159 523)"><rect x="-5" y="-5" width="82" height="103" rx="10" fill="none" stroke="#f1c66e" stroke-width="2" filter="url(#glow)"/><rect width="72" height="93" rx="7" fill="url(#card)" stroke="#f1c66e" stroke-width="1.6"/><rect x="4" y="4" width="64" height="53" rx="4" fill="url(#photo)"/><text x="36" y="67" fill="#fff" font-size="11" font-weight="bold">Магомед</text><text x="36" y="81" fill="#e1d2ae" font-size="9">1825–1890</text></g>
      <g transform="translate(282 523)"><rect width="72" height="93" rx="7" fill="url(#card)" stroke="#d8bc7e"/><rect x="4" y="4" width="64" height="53" rx="4" fill="#101918" stroke="#655c47"/><text x="36" y="67" fill="#fff" font-size="11" font-weight="bold">Ахмет</text><text x="36" y="81" fill="#c8bea9" font-size="9">1830–1895</text></g>
    </g>
    <g opacity=".78"><use href="#avatar-fallback" x="181" y="199" width="28" height="32"/><use href="#avatar-fallback" x="58" y="386" width="28" height="32"/><use href="#avatar-fallback" x="181" y="386" width="28" height="32"/><use href="#avatar-fallback" x="304" y="386" width="28" height="32"/><use href="#avatar-fallback" x="58" y="535" width="28" height="32"/><use href="#avatar-fallback" x="181" y="535" width="28" height="32"/><use href="#avatar-fallback" x="304" y="535" width="28" height="32"/></g>
    <g transform="translate(19 641)"><rect width="88" height="57" rx="5" fill="#030a0e" fill-opacity=".94" stroke="#bd9a58"/><text x="44" y="13" text-anchor="middle" fill="#e1c37c" font-family="Arial,sans-serif" font-size="7">МИНИ-КАРТА</text><g stroke="#bd944b" stroke-width="1" fill="none"><path d="M11 22H77M24 22v11M44 22v11M64 22v11M24 33h40M24 33v12M44 33v12M64 33v12"/></g><rect x="33" y="30" width="22" height="17" fill="none" stroke="#f0c66e"/></g>
    <g font-family="Arial,sans-serif" text-anchor="middle"><rect x="333" y="605" width="37" height="37" rx="7" fill="#071015" stroke="#a98b52"/><text x="351.5" y="630" fill="#f1d38e" font-size="19">＋</text><rect x="333" y="648" width="37" height="37" rx="7" fill="#071015" stroke="#a98b52"/><text x="351.5" y="673" fill="#f1d38e" font-size="19">−</text><rect x="120" y="654" width="119" height="37" rx="7" fill="#071015" stroke="#bd934d"/><text x="179.5" y="678" fill="#f0d18b" font-size="11">◎　Кто я?</text></g>
    <rect x="17" y="706" width="356" height="69" rx="10" fill="url(#bar)" stroke="#d2b779" stroke-opacity=".65" filter="url(#shadow)"/>
    <rect x="27" y="716" width="45" height="49" rx="5" fill="url(#photo)" stroke="#c7a159"/>
    <use href="#avatar-fallback" x="37" y="722" width="25" height="31" opacity=".78"/>
    <text x="83" y="737" fill="#f1e8d7" font-family="Georgia,serif" font-size="15" font-weight="bold">Магомед</text>
    <text x="83" y="755" fill="#c6baa2" font-family="Arial,sans-serif" font-size="10">1825–1890 · поколение 3</text>
    <text x="351" y="751" fill="#f0ca75" font-family="Arial,sans-serif" font-size="23" text-anchor="middle">›</text>
    <rect x="7" y="781" width="376" height="56" fill="#030a0e" stroke="#927c55" stroke-opacity=".33"/>
    <g fill="none" stroke="#edc973" stroke-width="1.3" stroke-linecap="round" stroke-linejoin="round">
      <path d="M45 798v12m0-9-6-5m6 7 6-6m-6 9-6-4m6 2 6-4"/>
      <circle cx="119" cy="797" r="3.5"/><circle cx="110" cy="801" r="2.7"/><circle cx="128" cy="801" r="2.7"/><path d="M112 811c0-4 3-6 7-6s7 2 7 6m-20 0c0-3 2-5 5-5m20 5c0-3-2-5-5-5"/>
      <path d="M195 811v-14m0 5-8-5m8 9 8-6m-16 2v9m16-5v5"/><circle cx="187" cy="797" r="2"/><circle cx="203" cy="800" r="2"/>
      <path d="M262 811v-6h5v6m3 0v-11h5v11m3 0v-15h5v15"/>
      <circle cx="339" cy="803" r="1.5" fill="#edc973"/><circle cx="345" cy="803" r="1.5" fill="#edc973"/><circle cx="351" cy="803" r="1.5" fill="#edc973"/>
    </g>
    <g font-family="Arial,sans-serif" text-anchor="middle" fill="#cbc5b8" font-size="8"><text x="45" y="825">Древо</text><text x="120" y="825">Люди</text><text x="195" y="825">Ветви</text><text x="270" y="825">Статистика</text><text x="345" y="825">Ещё</text></g>
  </g>
</svg>
